<?xml version="1.0" encoding="UTF-8"?><svg id="Layer_2" xmlns="http://www.w3.org/2000/svg" viewBox="0 0 44.49 50.21"><defs><style>.cls-1{fill:#f15a24;}</style></defs><g id="Layer_1-2"><path class="cls-1" d="M44.49,48.71V19.05c0-1.75-1.43-3.18-3.19-3.18h0s-8.41,0-8.41,0c-.81,0-1.46,.65-1.46,1.46s.65,1.46,1.46,1.46h8.41c.14,0,.26,.12,.26,.26v29.66"/><path class="cls-1" d="M2.92,48.71V19.05c0-.14,.12-.26,.26-.26H11.59c.81,0,1.46-.65,1.46-1.46s-.65-1.46-1.46-1.46H3.19c-1.76,0-3.19,1.43-3.19,3.18v29.66"/><path class="cls-1" d="M11.13,0c-3.75,0-6.79,3.04-6.79,6.79,0,3.75,3.04,6.79,6.79,6.79s6.79-3.04,6.79-6.79S14.89,0,11.13,0"/><path class="cls-1" d="M33.36,0c-3.75,0-6.79,3.04-6.79,6.79s3.04,6.79,6.79,6.79,6.79-3.04,6.79-6.79c0-3.75-3.04-6.79-6.79-6.79"/><path class="cls-1" d="M16.16,48.97v-15.31h2.17v-2.93h-3.41c-.93,0-1.69,.76-1.69,1.69v17.78"/><path class="cls-1" d="M31.25,50.21v-17.78c0-.93-.76-1.69-1.69-1.69h-3.4v2.93h2.17v15.3"/><path class="cls-1" d="M15.45,22.32c0,3.75,3.04,6.79,6.79,6.79s6.79-3.04,6.79-6.79c0-1.98-.85-3.75-2.2-4.99-1.21-1.12-2.82-1.8-4.6-1.8s-3.39,.69-4.6,1.8c-1.35,1.24-2.2,3.01-2.2,4.99Zm10.66,0c0,2.13-1.74,3.87-3.87,3.87s-3.87-1.74-3.87-3.87,1.74-3.87,3.87-3.87,3.87,1.74,3.87,3.87Z"/></g></svg>