<?xml version="1.0" encoding="UTF-8"?><svg id="Layer_2" xmlns="http://www.w3.org/2000/svg" viewBox="0 0 37.49 48.71"><defs><style>.cls-1{fill:#f7931e;}</style></defs><g id="Layer_1-2"><g><path class="cls-1" d="M2.92,48.71V19.05c0-.14,.12-.26,.26-.26H11.59c.81,0,1.46-.65,1.46-1.46s-.65-1.46-1.46-1.46H3.19c-1.76,0-3.19,1.43-3.19,3.18v29.66"/><path class="cls-1" d="M11.13,0c-3.75,0-6.79,3.04-6.79,6.79,0,3.75,3.04,6.79,6.79,6.79s6.79-3.04,6.79-6.79S14.89,0,11.13,0"/><path class="cls-1" d="M37.49,48.71V19.05c0-1.75-1.43-3.18-3.19-3.18h0s-8.41,0-8.41,0c-.81,0-1.46,.65-1.46,1.46s.65,1.46,1.46,1.46h8.41c.14,0,.26,.12,.26,.26v29.66"/><path class="cls-1" d="M22.49,48.71V19.05c0-1.75-1.43-3.18-3.19-3.18h0s-8.41,0-8.41,0c-.81,0-1.46,.65-1.46,1.46s.65,1.46,1.46,1.46h8.41c.14,0,.26,.12,.26,.26v29.66"/><path class="cls-1" d="M27.36,0c-3.75,0-6.79,3.04-6.79,6.79s3.04,6.79,6.79,6.79,6.79-3.04,6.79-6.79C34.15,3.04,31.11,0,27.36,0"/></g></g></svg>